<svg xmlns:dc="http://purl.org/dc/elements/1.1/" xmlns:cc="http://creativecommons.org/ns#" xmlns:rdf="http://www.w3.org/1999/02/22-rdf-syntax-ns#" xmlns:svg="http://www.w3.org/2000/svg" xmlns="http://www.w3.org/2000/svg" xmlns:xlink="http://www.w3.org/1999/xlink" id="svg90185" viewBox="0 0 1024 768" width="1024px" height="768px" version="1.1">
  <metadata id="metadata90191">
    <rdf:rdf>
      <cc:work rdf:about="">
        <dc:format>image/svg+xml</dc:format>
        <dc:type rdf:resource="http://purl.org/dc/dcmitype/StillImage"></dc:type>
      </cc:work>
    </rdf:rdf>
  </metadata>
  <defs id="defs90189"></defs>
  <linearGradient spreadMethod="pad" y2="30%" x2="-10%" y1="120%" x1="30%" id="3d_gradient2-logo-65e4bf62-264c-4fcd-b09e-b64a61ddb36a">
    <stop id="stop90166" stop-opacity="1" stop-color="#ffffff" offset="0%"></stop>
    <stop id="stop90168" stop-opacity="1" stop-color="#000000" offset="100%"></stop>
  </linearGradient>
  <linearGradient gradientTransform="rotate(-30)" spreadMethod="pad" y2="30%" x2="-10%" y1="120%" x1="30%" id="3d_gradient3-logo-65e4bf62-264c-4fcd-b09e-b64a61ddb36a">
    <stop id="stop90171" stop-opacity="1" stop-color="#ffffff" offset="0%"></stop>
    <stop id="stop90173" stop-opacity="1" stop-color="#cccccc" offset="50%"></stop>
    <stop id="stop90175" stop-opacity="1" stop-color="#000000" offset="100%"></stop>
  </linearGradient>
  <g id="logo-group">
    <g id="logo-center" transform="translate(0 0)">
      <g id="slogan" style="font-style:normal;font-weight:400;font-size:32px;line-height:1;font-family:Montserrat;font-variant-ligatures:none;text-align:center;text-anchor:middle" transform="translate(0 0)">
        <path id="path90193" style="font-style:normal;font-weight:400;font-size:32px;line-height:1;font-family:Montserrat;font-variant-ligatures:none;text-align:center;text-anchor:middle" d="m 286.3875,-22.4 h 3.072 v 9.984 h 12.8 V -22.4 h 3.104 V 0 h -3.104 v -9.632 h -12.8 V 0 h -3.072 z" stroke-width="0" stroke-linejoin="miter" stroke-miterlimit="2" fill="#10fac3" stroke="#10fac3" transform="translate(0 376.33369572000004) translate(285.31449999999995 51.536) scale(1) translate(-286.3875 22.4)"></path>
        <path id="path90195" style="font-style:normal;font-weight:400;font-size:32px;line-height:1;font-family:Montserrat;font-variant-ligatures:none;text-align:center;text-anchor:middle" d="m 318.5145,-17.024 q 2.528,0 4.48,1.088 1.984,1.088 3.072,3.04 1.12,1.92 1.12,4.416 0,2.496 -1.12,4.448 -1.088,1.952 -3.072,3.04 -1.952,1.088 -4.48,1.088 -2.56,0 -4.544,-1.088 -1.952,-1.088 -3.072,-3.008 -1.088,-1.952 -1.088,-4.48 0,-2.496 1.088,-4.416 1.12,-1.952 3.072,-3.04 1.984,-1.088 4.544,-1.088 z m 0,2.592 q -1.664,0 -2.976,0.768 -1.28,0.768 -2.016,2.144 -0.704,1.344 -0.704,3.072 0,1.76 0.704,3.136 0.736,1.376 2.016,2.144 1.312,0.736 2.976,0.736 1.632,0 2.912,-0.736 1.312,-0.768 2.016,-2.144 0.736,-1.376 0.736,-3.136 0,-1.728 -0.736,-3.072 -0.704,-1.376 -2.016,-2.144 -1.28,-0.768 -2.912,-0.768 z" stroke-width="0" stroke-linejoin="miter" stroke-miterlimit="2" fill="#11fac6" stroke="#11fac6" transform="translate(0 376.33369572000004) translate(308.73749999999995 56.912) scale(1) translate(-309.8105 17.024)"></path>
        <path id="path90197" style="font-style:normal;font-weight:400;font-size:32px;line-height:1;font-family:Montserrat;font-variant-ligatures:none;text-align:center;text-anchor:middle" d="m 353.2055,-17.024 q 2.912,0 4.576,1.76 1.664,1.76 1.664,4.8 V 0 h -3.008 v -9.664 q 0,-2.144 -1.184,-3.36 -1.152,-1.216 -3.2,-1.216 -2.4,0.064 -3.776,1.696 -1.376,1.632 -1.376,4.192 V 0 h -3.008 v -9.664 q 0,-2.144 -1.152,-3.36 -1.152,-1.216 -3.232,-1.216 -2.4,0.064 -3.808,1.696 -1.376,1.632 -1.376,4.192 V 0 h -2.976 v -16.928 h 2.976 v 3.552 q 1.664,-3.584 6.304,-3.648 2.336,0 3.872,1.12 1.568,1.12 2.112,3.136 1.568,-4.192 6.592,-4.256 z" stroke-width="0" stroke-linejoin="miter" stroke-miterlimit="2" fill="#13f9c8" stroke="#13f9c8" transform="translate(0 376.33369572000004) translate(330.27649999999994 56.912) scale(1) translate(-331.3495 17.024)"></path>
        <path id="path90199" style="font-style:normal;font-weight:400;font-size:32px;line-height:1;font-family:Montserrat;font-variant-ligatures:none;text-align:center;text-anchor:middle" d="m 371.571,-17.024 q 3.936,0 5.952,2.336 2.016,2.304 2.016,6.432 0,0.64 -0.032,0.96 h -13.376 q 0.352,2.272 1.888,3.616 1.568,1.344 3.84,1.344 1.504,0 2.784,-0.544 1.312,-0.544 2.272,-1.536 l 1.632,1.696 q -1.248,1.344 -3.008,2.08 -1.76,0.736 -3.904,0.736 -2.496,0 -4.448,-1.056 -1.92,-1.088 -3.008,-3.04 -1.056,-1.952 -1.056,-4.448 0,-2.496 1.056,-4.416 1.088,-1.952 3.008,-3.04 1.92,-1.12 4.384,-1.12 z m 5.28,7.424 q -0.128,-2.304 -1.536,-3.616 -1.408,-1.344 -3.712,-1.344 -2.24,0 -3.744,1.344 -1.472,1.344 -1.76,3.616 z" stroke-width="0" stroke-linejoin="miter" stroke-miterlimit="2" fill="#14f9cb" stroke="#14f9cb" transform="translate(0 376.33369572000004) translate(362.04999999999995 56.912) scale(1) translate(-363.123 17.024)"></path>
        <path id="path90201" style="font-style:normal;font-weight:400;font-size:32px;line-height:1;font-family:Montserrat;font-variant-ligatures:none;text-align:center;text-anchor:middle" d="m 399.0145,-17.024 q 2.528,0 4.48,1.088 1.984,1.088 3.072,3.04 1.12,1.92 1.12,4.416 0,2.496 -1.12,4.448 -1.088,1.952 -3.072,3.04 -1.952,1.088 -4.48,1.088 -2.56,0 -4.544,-1.088 -1.952,-1.088 -3.072,-3.008 -1.088,-1.952 -1.088,-4.48 0,-2.496 1.088,-4.416 1.12,-1.952 3.072,-3.04 1.984,-1.088 4.544,-1.088 z m 0,2.592 q -1.664,0 -2.976,0.768 -1.28,0.768 -2.016,2.144 -0.704,1.344 -0.704,3.072 0,1.76 0.704,3.136 0.736,1.376 2.016,2.144 1.312,0.736 2.976,0.736 1.632,0 2.912,-0.736 1.312,-0.768 2.016,-2.144 0.736,-1.376 0.736,-3.136 0,-1.728 -0.736,-3.072 -0.704,-1.376 -2.016,-2.144 -1.28,-0.768 -2.912,-0.768 z" stroke-width="0" stroke-linejoin="miter" stroke-miterlimit="2" fill="#16f9ce" stroke="#16f9ce" transform="translate(0 376.33369572000004) translate(389.23749999999995 56.912) scale(1) translate(-390.3105 17.024)"></path>
        <path id="path90203" style="font-style:normal;font-weight:400;font-size:32px;line-height:1;font-family:Montserrat;font-variant-ligatures:none;text-align:center;text-anchor:middle" d="m 417.9645,-21.28 q -1.152,0 -1.92,0.704 -0.768,0.704 -0.768,2.016 v 2.208 h 4.672 v 2.272 h -4.672 V 0 h -2.976 v -14.08 h -2.208 v -2.272 h 2.208 v -1.824 q 0,-1.856 0.768,-3.136 0.8,-1.312 2.08,-1.952 1.28,-0.672 2.752,-0.672 1.408,0 2.944,0.768 l -0.704,2.432 q -1.152,-0.544 -2.176,-0.544 z" stroke-width="0" stroke-linejoin="miter" stroke-miterlimit="2" fill="#17f9d1" stroke="#17f9d1" transform="translate(0 376.33369572000004) translate(409.01949999999994 50) scale(1) translate(-410.0925 23.936)"></path>
        <path id="path90205" style="font-style:normal;font-weight:400;font-size:32px;line-height:1;font-family:Montserrat;font-variant-ligatures:none;text-align:center;text-anchor:middle" d="m 447.965,0 -2.368,-5.44 H 433.789 L 431.453,0 h -3.232 l 9.952,-22.4 h 3.2 l 9.92,22.4 z m -12.96,-8.224 h 9.408 l -4.736,-10.88 z" stroke-width="0" stroke-linejoin="miter" stroke-miterlimit="2" fill="#18f8d3" stroke="#18f8d3" transform="translate(0 376.33369572000004) translate(427.14799999999997 51.536) scale(1) translate(-428.221 22.4)"></path>
        <path id="path90207" style="font-style:normal;font-weight:400;font-size:32px;line-height:1;font-family:Montserrat;font-variant-ligatures:none;text-align:center;text-anchor:middle" d="m 463.695,-17.024 q 2.368,0 4.224,1.088 1.856,1.088 2.88,3.04 1.024,1.952 1.024,4.48 0,2.496 -1.024,4.448 -0.992,1.92 -2.848,3.008 -1.824,1.056 -4.192,1.056 -2.144,0 -3.776,-0.896 -1.632,-0.896 -2.56,-2.56 v 9.568 h -2.976 v -23.136 h 2.976 v 3.36 q 0.928,-1.664 2.528,-2.56 1.632,-0.896 3.744,-0.896 z m -0.576,14.528 q 1.632,0 2.912,-0.768 1.312,-0.768 2.016,-2.144 0.736,-1.376 0.736,-3.104 0,-1.696 -0.736,-3.072 -0.736,-1.376 -2.016,-2.144 -1.28,-0.768 -2.912,-0.768 -1.632,0 -2.944,0.768 -1.28,0.768 -2.016,2.144 -0.736,1.376 -0.736,3.072 0,1.76 0.736,3.136 0.736,1.344 2.016,2.112 1.312,0.768 2.944,0.768 z" stroke-width="0" stroke-linejoin="miter" stroke-miterlimit="2" fill="#1af8d6" stroke="#1af8d6" transform="translate(0 376.33369572000004) translate(453.37399999999997 56.912) scale(1) translate(-454.447 17.024)"></path>
        <path id="path90209" style="font-style:normal;font-weight:400;font-size:32px;line-height:1;font-family:Montserrat;font-variant-ligatures:none;text-align:center;text-anchor:middle" d="m 485.3825,-17.024 q 2.368,0 4.224,1.088 1.856,1.088 2.88,3.04 1.024,1.952 1.024,4.48 0,2.496 -1.024,4.448 -0.992,1.92 -2.848,3.008 -1.824,1.056 -4.192,1.056 -2.144,0 -3.776,-0.896 -1.632,-0.896 -2.56,-2.56 v 9.568 h -2.976 v -23.136 h 2.976 v 3.36 q 0.928,-1.664 2.528,-2.56 1.632,-0.896 3.744,-0.896 z m -0.576,14.528 q 1.632,0 2.912,-0.768 1.312,-0.768 2.016,-2.144 0.736,-1.376 0.736,-3.104 0,-1.696 -0.736,-3.072 -0.736,-1.376 -2.016,-2.144 -1.28,-0.768 -2.912,-0.768 -1.632,0 -2.944,0.768 -1.28,0.768 -2.016,2.144 -0.736,1.376 -0.736,3.072 0,1.76 0.736,3.136 0.736,1.344 2.016,2.112 1.312,0.768 2.944,0.768 z" stroke-width="0" stroke-linejoin="miter" stroke-miterlimit="2" fill="#1bf8d9" stroke="#1bf8d9" transform="translate(0 376.33369572000004) translate(475.06149999999997 56.912) scale(1) translate(-476.1345 17.024)"></path>
        <path id="path90211" style="font-style:normal;font-weight:400;font-size:32px;line-height:1;font-family:Montserrat;font-variant-ligatures:none;text-align:center;text-anchor:middle" d="m 497.662,-16.928 h 2.976 V 0 h -2.976 z m 1.472,-6.752 q 0.8,0 1.312,0.544 0.544,0.544 0.544,1.376 0,0.832 -0.544,1.376 -0.512,0.544 -1.312,0.544 -0.8,0 -1.344,-0.544 -0.512,-0.544 -0.512,-1.376 0,-0.832 0.512,-1.376 0.544,-0.544 1.344,-0.544 z" stroke-width="0" stroke-linejoin="miter" stroke-miterlimit="2" fill="#1df8dc" stroke="#1df8dc" transform="translate(0 376.33369572000004) translate(496.205 50.256) scale(1) translate(-497.278 23.68)"></path>
        <path id="path90213" style="font-style:normal;font-weight:400;font-size:32px;line-height:1;font-family:Montserrat;font-variant-ligatures:none;text-align:center;text-anchor:middle" d="m 512.652,-21.28 q -1.152,0 -1.92,0.704 -0.768,0.704 -0.768,2.016 v 2.208 h 4.672 v 2.272 h -4.672 V 0 h -2.976 v -14.08 h -2.208 v -2.272 h 2.208 v -1.824 q 0,-1.856 0.768,-3.136 0.8,-1.312 2.08,-1.952 1.28,-0.672 2.752,-0.672 1.408,0 2.944,0.768 l -0.704,2.432 q -1.152,-0.544 -2.176,-0.544 z" stroke-width="0" stroke-linejoin="miter" stroke-miterlimit="2" fill="#1ef7de" stroke="#1ef7de" transform="translate(0 376.33369572000004) translate(503.70699999999994 50) scale(1) translate(-504.78 23.936)"></path>
        <path id="path90215" style="font-style:normal;font-weight:400;font-size:32px;line-height:1;font-family:Montserrat;font-variant-ligatures:none;text-align:center;text-anchor:middle" d="m 524.207,2.4 q -0.8,1.952 -2.144,2.944 -1.312,0.992 -3.104,0.992 -1.088,0 -1.984,-0.32 -0.896,-0.32 -1.728,-0.992 l 1.28,-2.336 q 1.12,0.8 2.272,0.8 1.92,0 2.88,-2.176 l 0.64,-1.504 -7.008,-16.736 h 3.136 l 5.376,13.568 5.088,-13.568 h 3.04 z" stroke-width="0" stroke-linejoin="miter" stroke-miterlimit="2" fill="#20f7e1" stroke="#20f7e1" transform="translate(0 376.33369572000004) translate(514.174 57.008) scale(1) translate(-515.247 16.928)"></path>
        <path id="path90217" style="font-style:normal;font-weight:400;font-size:32px;line-height:1;font-family:Montserrat;font-variant-ligatures:none;text-align:center;text-anchor:middle" d="m 553.4355,0 v -2.368 q -1.888,2.496 -5.92,2.496 -1.76,0 -3.104,-0.672 -1.312,-0.672 -2.048,-1.856 -0.704,-1.184 -0.704,-2.656 0,-2.272 1.664,-3.584 1.696,-1.344 4.704,-1.376 h 5.376 v -0.8 q 0,-1.792 -1.12,-2.752 -1.088,-0.992 -3.2,-0.992 -2.56,0 -5.216,1.824 l -1.248,-2.048 q 1.824,-1.184 3.36,-1.696 1.568,-0.544 3.712,-0.544 3.168,0 4.896,1.568 1.728,1.536 1.76,4.32 L 556.3795,0 Z m -5.312,-2.336 q 2.08,0 3.52,-0.992 1.472,-1.024 1.76,-2.688 v -1.696 h -4.96 q -2.016,0 -3.008,0.608 -0.96,0.608 -0.96,1.92 0,1.312 0.992,2.08 0.992,0.768 2.656,0.768 z" stroke-width="0" stroke-linejoin="miter" stroke-miterlimit="2" fill="#21f7e4" stroke="#21f7e4" transform="translate(0 376.33369572000004) translate(540.5865 56.912) scale(1) translate(-541.6595 17.024)"></path>
        <path id="path90219" style="font-style:normal;font-weight:400;font-size:32px;line-height:1;font-family:Montserrat;font-variant-ligatures:none;text-align:center;text-anchor:middle" d="m 571.07,-17.024 q 2.976,0 4.672,1.76 1.696,1.728 1.696,4.8 V 0 h -2.976 v -9.664 q 0,-2.144 -1.216,-3.328 -1.184,-1.216 -3.296,-1.216 -2.272,0.032 -3.712,1.472 -1.408,1.408 -1.6,3.68 V 0 h -2.976 v -16.928 h 2.976 v 3.584 q 1.696,-3.616 6.432,-3.68 z" stroke-width="0" stroke-linejoin="miter" stroke-miterlimit="2" fill="#22f6e6" stroke="#22f6e6" transform="translate(0 376.33369572000004) translate(560.589 56.912) scale(1) translate(-561.662 17.024)"></path>
        <path id="path90221" style="font-style:normal;font-weight:400;font-size:32px;line-height:1;font-family:Montserrat;font-variant-ligatures:none;text-align:center;text-anchor:middle" d="M 598.5005,-23.744 V 0 h -2.976 v -3.36 q -0.96,1.696 -2.592,2.624 -1.6,0.896 -3.744,0.896 -2.4,0 -4.256,-1.088 -1.824,-1.12 -2.848,-3.072 -1.024,-1.984 -1.024,-4.512 0,-2.496 1.024,-4.416 1.024,-1.952 2.848,-3.04 1.856,-1.088 4.224,-1.088 2.176,0 3.808,0.896 1.632,0.896 2.56,2.592 v -10.176 z m -8.704,21.344 q 1.664,0 2.944,-0.768 1.312,-0.768 2.048,-2.144 0.736,-1.376 0.736,-3.104 0,-1.76 -0.736,-3.136 -0.736,-1.376 -2.048,-2.144 -1.28,-0.768 -2.944,-0.768 -1.664,0 -2.976,0.8 -1.28,0.768 -2.016,2.144 -0.736,1.376 -0.736,3.104 0,1.728 0.736,3.104 0.736,1.376 2.016,2.144 1.312,0.768 2.976,0.768 z" stroke-width="0" stroke-linejoin="miter" stroke-miterlimit="2" fill="#24f6e9" stroke="#24f6e9" transform="translate(0 376.33369572000004) translate(579.9875000000001 50.192) scale(1) translate(-581.0605 23.744)"></path>
        <path id="path90223" style="font-style:normal;font-weight:400;font-size:32px;line-height:1;font-family:Montserrat;font-variant-ligatures:none;text-align:center;text-anchor:middle" d="m 612.8495,-16.928 h 2.976 V 0 h -2.976 z m 1.472,-6.752 q 0.8,0 1.312,0.544 0.544,0.544 0.544,1.376 0,0.832 -0.544,1.376 -0.512,0.544 -1.312,0.544 -0.8,0 -1.344,-0.544 -0.512,-0.544 -0.512,-1.376 0,-0.832 0.512,-1.376 0.544,-0.544 1.344,-0.544 z" stroke-width="0" stroke-linejoin="miter" stroke-miterlimit="2" fill="#25f6ec" stroke="#25f6ec" transform="translate(0 376.33369572000004) translate(611.3925 50.256) scale(1) translate(-612.4655 23.68)"></path>
        <path id="path90225" style="font-style:normal;font-weight:400;font-size:32px;line-height:1;font-family:Montserrat;font-variant-ligatures:none;text-align:center;text-anchor:middle" d="m 630.6875,-1.12 q -1.952,1.248 -3.968,1.248 -2.016,0 -3.264,-1.184 -1.248,-1.216 -1.248,-3.648 v -9.376 h -2.4 v -2.272 h 2.4 v -4.544 h 3.008 v 4.544 h 5.184 v 2.272 h -5.184 v 8.832 q 0,1.408 0.512,2.016 0.512,0.608 1.536,0.608 1.216,0 2.624,-0.8 z" stroke-width="0" stroke-linejoin="miter" stroke-miterlimit="2" fill="#27f6ef" stroke="#27f6ef" transform="translate(0 376.33369572000004) translate(618.7345 53.04) scale(1) translate(-619.8075 20.896)"></path>
        <path id="path90227" style="font-style:normal;font-weight:400;font-size:32px;line-height:1;font-family:Montserrat;font-variant-ligatures:none;text-align:center;text-anchor:middle" d="m 643.535,-13.184 q -1.056,-0.64 -2.336,-1.024 -1.248,-0.384 -2.4,-0.384 -1.344,0 -2.176,0.512 -0.8,0.48 -0.8,1.504 0,1.024 0.896,1.568 0.928,0.512 2.784,1.056 1.76,0.512 2.88,1.024 1.12,0.512 1.888,1.504 0.8,0.992 0.8,2.624 0,2.4 -1.824,3.648 -1.792,1.248 -4.48,1.248 -1.888,0 -3.68,-0.608 -1.76,-0.608 -2.976,-1.728 l 1.12,-2.176 q 1.056,0.96 2.592,1.536 1.568,0.576 3.04,0.576 1.472,0 2.368,-0.544 0.896,-0.544 0.896,-1.664 0,-1.152 -0.96,-1.728 -0.928,-0.576 -2.848,-1.152 -1.696,-0.48 -2.784,-0.96 -1.056,-0.512 -1.824,-1.472 -0.736,-0.96 -0.736,-2.496 0,-2.368 1.728,-3.552 1.728,-1.184 4.32,-1.184 1.536,0 3.008,0.448 1.504,0.416 2.592,1.152 z" stroke-width="0" stroke-linejoin="miter" stroke-miterlimit="2" fill="#28f5f1" stroke="#28f5f1" transform="translate(0 376.33369572000004) translate(631.038 56.88) scale(1) translate(-632.111 17.056)"></path>
        <path id="path90229" style="font-style:normal;font-weight:400;font-size:32px;line-height:1;font-family:Montserrat;font-variant-ligatures:none;text-align:center;text-anchor:middle" d="m 666.82,-17.024 q 2.368,0 4.224,1.088 1.856,1.088 2.88,3.04 1.024,1.952 1.024,4.48 0,2.496 -1.024,4.448 -0.992,1.92 -2.848,3.008 -1.824,1.056 -4.192,1.056 -2.144,0 -3.776,-0.896 -1.632,-0.896 -2.56,-2.56 v 9.568 h -2.976 v -23.136 h 2.976 v 3.36 q 0.928,-1.664 2.528,-2.56 1.632,-0.896 3.744,-0.896 z m -0.576,14.528 q 1.632,0 2.912,-0.768 1.312,-0.768 2.016,-2.144 0.736,-1.376 0.736,-3.104 0,-1.696 -0.736,-3.072 -0.736,-1.376 -2.016,-2.144 -1.28,-0.768 -2.912,-0.768 -1.632,0 -2.944,0.768 -1.28,0.768 -2.016,2.144 -0.736,1.376 -0.736,3.072 0,1.76 0.736,3.136 0.736,1.344 2.016,2.112 1.312,0.768 2.944,0.768 z" stroke-width="0" stroke-linejoin="miter" stroke-miterlimit="2" fill="#29f5f4" stroke="#29f5f4" transform="translate(0 376.33369572000004) translate(656.499 56.912) scale(1) translate(-657.572 17.024)"></path>
        <path id="path90231" style="font-style:normal;font-weight:400;font-size:32px;line-height:1;font-family:Montserrat;font-variant-ligatures:none;text-align:center;text-anchor:middle" d="m 685.8835,-17.024 q 3.936,0 5.952,2.336 2.016,2.304 2.016,6.432 0,0.64 -0.032,0.96 h -13.376 q 0.352,2.272 1.888,3.616 1.568,1.344 3.84,1.344 1.504,0 2.784,-0.544 1.312,-0.544 2.272,-1.536 l 1.632,1.696 q -1.248,1.344 -3.008,2.08 -1.76,0.736 -3.904,0.736 -2.496,0 -4.448,-1.056 -1.92,-1.088 -3.008,-3.04 -1.056,-1.952 -1.056,-4.448 0,-2.496 1.056,-4.416 1.088,-1.952 3.008,-3.04 1.92,-1.12 4.384,-1.12 z m 5.28,7.424 q -0.128,-2.304 -1.536,-3.616 -1.408,-1.344 -3.712,-1.344 -2.24,0 -3.744,1.344 -1.472,1.344 -1.76,3.616 z" stroke-width="0" stroke-linejoin="miter" stroke-miterlimit="2" fill="#2bf5f7" stroke="#2bf5f7" transform="translate(0 376.33369572000004) translate(676.3625000000001 56.912) scale(1) translate(-677.4355 17.024)"></path>
        <path id="path90233" style="font-style:normal;font-weight:400;font-size:32px;line-height:1;font-family:Montserrat;font-variant-ligatures:none;text-align:center;text-anchor:middle" d="m 704.696,-17.024 q 3.936,0 5.952,2.336 2.016,2.304 2.016,6.432 0,0.64 -0.032,0.96 h -13.376 q 0.352,2.272 1.888,3.616 1.568,1.344 3.84,1.344 1.504,0 2.784,-0.544 1.312,-0.544 2.272,-1.536 l 1.632,1.696 q -1.248,1.344 -3.008,2.08 -1.76,0.736 -3.904,0.736 -2.496,0 -4.448,-1.056 -1.92,-1.088 -3.008,-3.04 -1.056,-1.952 -1.056,-4.448 0,-2.496 1.056,-4.416 1.088,-1.952 3.008,-3.04 1.92,-1.12 4.384,-1.12 z m 5.28,7.424 q -0.128,-2.304 -1.536,-3.616 -1.408,-1.344 -3.712,-1.344 -2.24,0 -3.744,1.344 -1.472,1.344 -1.76,3.616 z" stroke-width="0" stroke-linejoin="miter" stroke-miterlimit="2" fill="#2cf5fa" stroke="#2cf5fa" transform="translate(0 376.33369572000004) translate(695.1750000000001 56.912) scale(1) translate(-696.248 17.024)"></path>
        <path id="path90235" style="font-style:normal;font-weight:400;font-size:32px;line-height:1;font-family:Montserrat;font-variant-ligatures:none;text-align:center;text-anchor:middle" d="m 719.7005,-13.28 q 0.832,-1.824 2.368,-2.752 1.536,-0.96 3.648,-0.992 v 2.88 q -2.592,-0.096 -4.192,1.344 -1.6,1.44 -1.824,3.872 V 0 h -2.976 v -16.928 h 2.976 z" stroke-width="0" stroke-linejoin="miter" stroke-miterlimit="2" fill="#2ef4fc" stroke="#2ef4fc" transform="translate(0 376.33369572000004) translate(715.6515 56.912) scale(1) translate(-716.7245 17.024)"></path>
        <path id="path90237" style="font-style:normal;font-weight:400;font-size:32px;line-height:1;font-family:Montserrat;font-variant-ligatures:none;text-align:center;text-anchor:middle" d="m 738.2225,-13.184 q -1.056,-0.64 -2.336,-1.024 -1.248,-0.384 -2.4,-0.384 -1.344,0 -2.176,0.512 -0.8,0.48 -0.8,1.504 0,1.024 0.896,1.568 0.928,0.512 2.784,1.056 1.76,0.512 2.88,1.024 1.12,0.512 1.888,1.504 0.8,0.992 0.8,2.624 0,2.4 -1.824,3.648 -1.792,1.248 -4.48,1.248 -1.888,0 -3.68,-0.608 -1.76,-0.608 -2.976,-1.728 l 1.12,-2.176 q 1.056,0.96 2.592,1.536 1.568,0.576 3.04,0.576 1.472,0 2.368,-0.544 0.896,-0.544 0.896,-1.664 0,-1.152 -0.96,-1.728 -0.928,-0.576 -2.848,-1.152 -1.696,-0.48 -2.784,-0.96 -1.056,-0.512 -1.824,-1.472 -0.736,-0.96 -0.736,-2.496 0,-2.368 1.728,-3.552 1.728,-1.184 4.32,-1.184 1.536,0 3.008,0.448 1.504,0.416 2.592,1.152 z" stroke-width="0" stroke-linejoin="miter" stroke-miterlimit="2" fill="#2ff4ff" stroke="#2ff4ff" transform="translate(0 376.33369572000004) translate(725.7255 56.88) scale(1) translate(-726.7985 17.056)"></path>
      </g>
      <g id="title" style="font-style:normal;font-weight:400;font-size:72px;line-height:1;font-family:'Brandmark Dots 1 Color';font-variant-ligatures:normal;text-align:center;text-anchor:middle" transform="translate(0 0)">
        <g id="path90240" aria-label="F" transform="translate(0 304.81894428000004) translate(255.07229000000007 8.959999999999994) scale(1.84) translate(-405.06594 50.4)"> <path class="c1" d="M92.76367,84.36592v36.0752c0,2.59277-2.16016,4.75293-4.82422,4.75293 c-2.59277,0-4.75293-2.16016-4.75293-4.75293V79.5417c0-2.5918,2.16016-4.75195,4.75293-4.75195h24.12207 c2.66406,0,4.75195,2.16016,4.75195,4.75195c0,2.66406-2.08789,4.82422-4.75195,4.82422H92.76367z" transform="translate(321.87942 -125.18975)" stroke-width="0" stroke-linejoin="miter" stroke-miterlimit="2" fill="#10fac3" stroke="#10fac3"></path> <path class="c3" d="M102.26855,96.39131c2.66406,0,4.82422,2.16016,4.82422,4.82422c0,2.59277-2.16016,4.75293-4.82422,4.75293 c-2.59277,0-4.75293-2.16016-4.75293-4.75293C97.51563,98.55147,99.67578,96.39131,102.26855,96.39131z" transform="translate(321.87942 -125.18975)" stroke-width="0" stroke-linejoin="miter" stroke-miterlimit="2" fill="#2ff4ff" stroke="#2ff4ff"></path> </g>
        <path id="path90242" style="font-style:normal;font-weight:400;font-size:72px;line-height:1;font-family:'Brandmark Dots 1 Color';font-variant-ligatures:normal;text-align:center;text-anchor:middle" d="m 475.76544,-30.888 c 1.44,-2.232 0.792,-5.184 -1.44,-6.624 -2.232,-1.368 -5.184,-0.72 -6.624,1.512 l -3.6,5.688 -11.304,-17.856 c -1.368,-2.232 -4.32,-2.88 -6.552,-1.512 -2.232,1.44 -2.88,4.392 -1.512,6.624 l 14.688,23.04 -0.072,15.264 c 0,2.592 2.16,4.752 4.824,4.752 2.592,0 4.752,-2.16 4.752,-4.752 V -20.16 Z m 3.672,-19.512 c -2.664,0 -4.752,2.16 -4.752,4.752 0,2.664 2.088,4.824 4.752,4.824 2.664,0 4.752,-2.16 4.752,-4.824 0,-2.592 -2.088,-4.752 -4.752,-4.752 z" stroke-width="0" stroke-linejoin="miter" stroke-miterlimit="2" fill="#10fac3" stroke="#10fac3" transform="translate(0 304.81894428000004) translate(354.3465828 8.959999999999994) scale(1.84) translate(-444.01936 50.4)"></path>
        <g id="path90244" aria-label="K" transform="translate(0 304.81894428000004) translate(525.1486308 8.959999999999994) scale(1.84) translate(-521.84656 50.4)"> <path class="c1" d="M115.83631,123.89815c-1.87207,1.7998-4.89648,1.72754-6.76855-0.14453l-16.77734-17.78516v14.47266 c0,2.59277-2.16016,4.75293-4.82422,4.75293c-2.59277,0-4.75293-2.16016-4.75293-4.75293V79.5417 c0-2.5918,2.16016-4.75195,4.75293-4.75195c2.66406,0,4.82422,2.16016,4.82422,4.75195v12.67285l5.47266-5.83203 c1.87207-1.87207,4.89648-1.94434,6.76855-0.07227s1.87207,4.89648,0,6.76855l-6.4082,5.9043l17.85742,18.14551 C117.78065,119.00166,117.70838,122.0251,115.83631,123.89815z" transform="translate(439.13329 -125.18975)" stroke-width="0" stroke-linejoin="miter" stroke-miterlimit="2" fill="#10fac3" stroke="#10fac3"></path> <path class="c3" d="M111.15662,74.78975c2.66406,0,4.82422,2.16016,4.82422,4.75195c0,2.66406-2.16016,4.82422-4.82422,4.82422 c-2.59277,0-4.75293-2.16016-4.75293-4.82422C106.40369,76.94991,108.56385,74.78975,111.15662,74.78975z" transform="translate(439.13329 -125.18975)" stroke-width="0" stroke-linejoin="miter" stroke-miterlimit="2" fill="#2ff4ff" stroke="#2ff4ff"></path> </g>
        <path id="path90246" style="font-style:normal;font-weight:400;font-size:72px;line-height:1;font-family:'Brandmark Dots 1 Color';font-variant-ligatures:normal;text-align:center;text-anchor:middle" d="m 571.68744,0 c 2.664,0 4.824,-2.16 4.824,-4.752 v -27.864 c 0,-2.592 -2.16,-4.752 -4.824,-4.752 -2.592,0 -4.752,2.16 -4.752,4.752 v 27.864 c 0,2.592 2.16,4.752 4.752,4.752 z m 0,-42.12 c 2.664,0 4.824,-2.16 4.824,-4.824 0,-2.592 -2.16,-4.752 -4.824,-4.752 -2.592,0 -4.752,2.16 -4.752,4.752 0,2.664 2.16,4.824 4.752,4.824 z" stroke-width="0" stroke-linejoin="miter" stroke-miterlimit="2" fill="#20f7e1" stroke="#20f7e1" transform="translate(0 304.81894428000004) translate(635.71217 6.575360000000003) scale(1.84) translate(-566.93544 51.696)"></path>
        <path id="path90248" style="font-style:normal;font-weight:400;font-size:72px;line-height:1;font-family:'Brandmark Dots 1 Color';font-variant-ligatures:normal;text-align:center;text-anchor:middle" d="m 609.14319,-45.648 c 0,-2.592 -1.872,-4.752 -4.752,-4.752 h -15.192 c -2.592,0 -4.752,2.16 -4.752,4.752 0,2.664 2.16,4.824 4.752,4.824 h 10.44 v 36.072 c 0,2.592 2.088,4.752 4.752,4.752 2.664,0 4.752,-2.16 4.752,-4.752 z m 10.44,-4.752 c -2.664,0 -4.824,2.16 -4.824,4.752 0,2.664 2.16,4.824 4.824,4.824 2.592,0 4.752,-2.16 4.752,-4.824 0,-2.592 -2.16,-4.752 -4.752,-4.752 z" stroke-width="0" stroke-linejoin="miter" stroke-miterlimit="2" fill="#2ff4ff" stroke="#2ff4ff" transform="translate(0 304.81894428000004) translate(695.53379 8.959999999999994) scale(1.84) translate(-584.44719 50.4)"></path>
        </g>
      <image xlink:href="" id="icon" x="0" y="0" style="display: none;"></image>
    </g>
  </g>
</svg>
